<svg width="497" height="125" viewBox="0 0 497 125" fill="none" xmlns="http://www.w3.org/2000/svg">
<path d="M110.245 122.151H96.84L93.6564 107.909C84.1646 119.303 71.7651 125 56.458 125C39.7019 125 26.1 119.303 15.662 107.909C5.21408 96.5147 0 81.661 0 63.3378C0 45.3497 5.25351 30.358 15.7507 18.3527C26.2478 6.34754 40.4412 0.335083 58.311 0.335083C71.2723 0.335083 82.5777 3.96226 92.237 11.2265C101.896 18.4907 107.396 28.3768 108.737 40.8847H88.462C87.2299 33.7387 83.9083 28.1205 78.4971 24.0498C73.0859 19.979 66.2948 17.9289 58.1434 17.9289C46.6409 17.9289 37.5927 21.9504 30.9987 29.9933C24.4047 38.0362 21.1126 49.036 21.1126 63.0026C21.1126 77.0777 24.4342 88.1071 31.0874 96.1008C37.7306 104.085 46.976 108.076 58.8137 108.076C69.2024 108.076 77.2157 104.834 82.8635 98.3579C88.5113 91.8822 91.3204 83.8885 91.3204 74.3967H59.1488V58.3109H110.255V122.151H110.245Z" fill="black"/>
<path d="M212.614 122.152H130.845V2.8584H151.958V104.065H212.614V122.152Z" fill="black"/>
<path d="M318.099 17.3474C328.655 28.9091 333.928 43.9599 333.928 62.5C333.928 81.04 328.625 96.0909 318.01 107.653C307.394 119.214 293.605 124.99 276.622 124.99C259.531 124.99 245.712 119.234 235.156 107.731C224.6 96.2289 219.327 81.1485 219.327 62.4901C219.327 44.3936 224.491 29.4512 234.821 17.6727C245.151 5.88432 259.196 0 276.958 0C293.832 0.00985649 307.542 5.78574 318.099 17.3474ZM250.315 29.7469C243.721 37.8489 240.429 48.6516 240.429 62.1649C240.429 76.0133 243.692 87.023 250.227 95.1743C256.762 103.326 265.672 107.406 276.948 107.406C287.78 107.406 296.464 103.296 302.998 95.0855C309.533 86.8751 312.796 75.9541 312.796 62.3324C312.796 48.7108 309.533 37.8391 302.998 29.7469C296.464 21.6547 287.672 17.5938 276.613 17.5938C265.682 17.6037 256.909 21.6448 250.315 29.7469Z" fill="black"/>
<path d="M361.24 2.8584L383.023 93.6761L407.487 2.8584H428.767L452.393 93.6761L474.846 2.8584H496.126L463.117 122.161H441.837L417.708 30.5059L393.077 122.161H371.462L339.96 2.8584H361.24Z" fill="black"/>
</svg>
